<svg width="1024" height="1024" viewBox="0 0 1024 1024" fill="none" xmlns="http://www.w3.org/2000/svg">
<rect width="1024" height="1024" rx="48" fill="#474056"/>
<rect x="128" y="128" width="768" height="768" fill="#474056"/>
<path d="M603.429 809.143C361.143 790.857 173.715 1005.71 173.715 192L257.791 192L347.429 192C342.857 731.429 365.714 745.143 475.429 594.286C498.285 694.857 498.286 726.857 603.429 809.143Z" fill="#FEF6C9"/>
<path fill-rule="evenodd" clip-rule="evenodd" d="M719.424 684.744C733.06 666.308 745.143 632.296 745.143 581.897C745.143 531.499 733.06 497.487 719.424 479.051C708.907 464.833 693.838 453.897 661.941 453.897C630.207 453.897 615.864 464.667 605.824 478.439C592.479 496.745 580.572 530.858 580.572 581.897C580.572 632.937 592.479 667.05 605.824 685.356C615.864 699.128 630.207 709.897 661.941 709.897C693.838 709.897 708.907 698.962 719.424 684.744ZM661.941 819.612C793.227 819.612 854.857 713.183 854.857 581.897C854.857 450.611 793.227 344.183 661.941 344.183C530.655 344.183 470.857 450.611 470.857 581.897C470.857 713.183 530.655 819.612 661.941 819.612Z" fill="#FEF6C9"/>
<path d="M793.745 690.286H530.286V569.75C524.267 565.43 518.176 559.905 512 553.143L544 466.286H781.714L813.714 553.143C807.086 560.715 800.436 566.82 793.745 571.402V690.286Z" fill="#D4DFC7"/>
<path d="M713.143 553.143C680.892 589.987 648.131 592.08 612.571 553.143C585.922 583.589 558.924 590.305 530.286 569.75C524.267 565.43 518.176 559.905 512 553.143L544 466.286H781.714L813.714 553.143C807.086 560.715 800.436 566.82 793.745 571.402C767.879 589.115 741.394 584.078 713.143 553.143Z" fill="#96C0B7"/>
</svg>
