<svg width="960" height="960" viewBox="0 0 960 960" fill="none" xmlns="http://www.w3.org/2000/svg">
<desc>shlo, co. logo</desc>
<g clip-path="url(#clip0_5764_3210)">
<rect width="960" height="960" fill="white"/>
<rect width="960" height="960" fill="#474056"/>
<rect x="190.312" y="190.312" width="579.375" height="579.375" fill="#474056"/>
<path d="M548.973 704.163C366.194 690.368 224.799 852.455 224.799 238.594L355.848 238.594C352.399 645.536 369.643 655.882 452.411 542.076C469.653 617.946 469.654 642.087 548.973 704.163Z" fill="#FEF6C9"/>
<path fill-rule="evenodd" clip-rule="evenodd" d="M636.48 610.317C646.767 596.409 655.882 570.75 655.882 532.73C655.882 494.71 646.767 469.051 636.48 455.143C628.546 444.417 617.178 436.168 593.115 436.168C569.175 436.168 558.355 444.292 550.78 454.682C540.713 468.491 531.73 494.226 531.73 532.73C531.73 571.234 540.713 596.969 550.78 610.778C558.355 621.168 569.175 629.293 593.115 629.293C617.178 629.293 628.546 621.043 636.48 610.317ZM593.115 712.061C692.156 712.061 738.65 631.772 738.65 532.73C738.65 433.689 692.156 353.4 593.115 353.4C494.073 353.4 448.962 433.689 448.962 532.73C448.962 631.772 494.073 712.061 593.115 712.061Z" fill="#FEF6C9"/>
<path d="M692.547 614.498H493.795V523.566C489.254 520.307 484.659 516.139 480 511.038L504.141 445.513H683.471L707.612 511.038C702.611 516.751 697.595 521.356 692.547 524.812V614.498Z" fill="#D4DFC7"/>
<path d="M631.741 511.038C607.411 538.833 582.697 540.412 555.871 511.038C535.766 534.006 515.399 539.073 493.795 523.566C489.254 520.307 484.659 516.139 480 511.038L504.141 445.513H683.471L707.612 511.038C702.611 516.751 697.595 521.356 692.547 524.812C673.034 538.175 653.054 534.375 631.741 511.038Z" fill="#96C0B7"/>
</g>
<defs>
<clipPath id="clip0_5764_3210">
<rect width="960" height="960" fill="white"/>
</clipPath>
</defs>
</svg>
